# xmcd
#
# Track frame offsets:
#	150
#	22270
#	49340
#	71047
#	96732
#	115862
#	135635
#	168037
#	190025
#	208010
#	226595
#	243470
#
# Disc length: 3460 seconds
#
# Revision: 2
# Processed by: cddbd v1.4PL0 Copyright (c) Steve Scherf et al.
# Submitted via: audiograbber 1.81.03
#
DISCID=a90d820c
DTITLE=Lyle`Lovett - Joshua Judges Ruth
DYEAR=1992
DGENRE=
TTITLE0=I've Been To Memphis
TTITLE1=Church
TTITLE2=She's Already Made Up Her Mind
TTITLE3=North Dakota
TTITLE4=You've Been So Good Up To Now
TTITLE5=All My Love Is Gone
TTITLE6=Since The Last Time
TTITLE7=Baltimore
TTITLE8=Family Reserve
TTITLE9=She's Leaving Me Because She Really Wants To
TTITLE10=Flyswatter - Ice Water Blues
TTITLE11=She Makes Me Feel Good
EXTD=
EXTT0=
EXTT1=
EXTT2=
EXTT3=
EXTT4=
EXTT5=
EXTT6=
EXTT7=
EXTT8=
EXTT9=
EXTT10=
EXTT11=
PLAYORDER=
